<?xml version="1.0" encoding="UTF-8"?>
<svg id="Layer_1" data-name="Layer 1" xmlns="http://www.w3.org/2000/svg" viewBox="0 0 144 144">
  <defs>
    <style>
      .cls-1 {
        fill: #141414;
      }
    </style>
  </defs>
  <path class="cls-1" d="M92.69,59.02c-.7-1.19-1.25-2.01-2.23-3,1.28-2.22,1.3-.67,2.38-3.69.39-1.08.99-2.24,2.09-2.72,1.41-.62,3.25-.89,4.65-.24.33.74.66,1.66,1.48,2.25-1.93,3.19-4.78,5.84-8.39,7.4Z"/>
  <path class="cls-1" d="M53.58,55.96c-1.02,1.17-1.56,1.92-2.23,3.04-3.55-1.48-6.36-4.11-8.4-7.33.75-.58,1.15-1.43,1.49-2.28,1.38-.69,3.44-.39,4.85.34,1.86.97,1.63,3.08,3,4.71l1.28,1.52Z"/>
</svg>