<?xml version="1.0" encoding="UTF-8"?>
<svg id="Layer_1" data-name="Layer 1" xmlns="http://www.w3.org/2000/svg" viewBox="0 0 144 144">
  <defs>
    <style>
      .cls-1 {
        fill: #141414;
      }
    </style>
  </defs>
  <path class="cls-1" d="M75.22,64.03l-1.4,9.13c-.38.68-1.68.76-2.4.61-.63-.13-1.55-.95-1.67-1.75l-.93-5.96c-.34-2.21-.66-4.52-1.84-6.42-.69-1.1-1.27-2.09-.85-3.53l.71-2.44c1.23.13,2.55.19,3.69.47s1.57.28,2.64,0,2.25-.3,3.64-.47c2.4,6.02-.64,4.16-1.59,10.36Z"/>
  <path class="cls-1" d="M69.78,47.98l-3.98.31c-.1-1.1-.46-2.6.02-3.57.98-2.01,3.36-2.9,5.54-2.4l.08,3.44c.02.9-.6,2.14-1.65,2.22Z"/>
  <path class="cls-1" d="M73.86,47.99c-2.01-.12-1.58-4.23-1.49-5.63,2.07-.59,4.56.32,5.55,2.36.46.96.11,2.27.12,3.53l-4.17-.26Z"/>
  <path class="cls-1" d="M77.34,52.7c-1.66.21-2.98.33-4.67.37-.45-1.49-.45-2.8-.22-4.38l5.19.5c.29,1.25.2,2.24-.3,3.52Z"/>
  <path class="cls-1" d="M70.25,53.14l-3.66-.44c-.84-.79-.81-2.32-.47-3.48l5.18-.53c.06.96.64,4.66-1.04,4.45Z"/>
</svg>