<?xml version="1.0" encoding="UTF-8"?>
<svg id="Layer_1" data-name="Layer 1" xmlns="http://www.w3.org/2000/svg" viewBox="0 0 144 144">
  <defs>
    <style>
      .cls-1 {
        fill: #141414;
      }
    </style>
  </defs>
  <path class="cls-1" d="M48.65,47.84c-.92.1-1.96-3.51.48-6.27.69-.78,1.26-1.53,1.91-2.39l1.54-.76c1.03-.51,2.64-.37,3.66-.24l.12,2.75c.09,2.04-3.79,5.26-5.68,6.38-.43.25-1.3.45-2.04.53Z"/>
  <path class="cls-1" d="M95.5,47.95c-2.77-.05-8.08-4.91-7.9-7.23l.2-2.56c2.65-.24,2.93-.16,5.13,1.05.64.82,1.22,1.57,1.9,2.33,1.35,1.52,2.34,4.51.67,6.42Z"/>
</svg>