<?xml version="1.0" encoding="UTF-8"?>
<svg id="Layer_1" data-name="Layer 1" xmlns="http://www.w3.org/2000/svg" viewBox="0 0 144 144">
  <defs>
    <style>
      .cls-1 {
        fill: #141414;
      }
    </style>
  </defs>
  <path class="cls-1" d="M87.01,37.24c-2.77,1.5-3.33,3.27-5.86,2.49-2.51-.77-4.85-1.75-7.2-2.97-1.96-1.01-1.31-5.37-.82-7.29,1.89-.35,3.68-.11,5.54.11,5.3.64,5.17,4.43,7.53,5.69.47.25.91.45,1.08.7s.04,1.1-.26,1.26Z"/>
  <path class="cls-1" d="M62.56,39.79c-2.15.63-3.11-1.05-4.93-2.14-.56-.34-1.06-.53-1.08-1.09-.07-1.62,1.11-.04,3.15-3.39,1.09-1.78,2.56-3.02,4.63-3.4,2.15-.39,4.26-.65,6.48-.31.46,2.06,1.17,6.25-.87,7.32-2.41,1.27-4.78,2.24-7.38,3.01Z"/>
</svg>