<?xml version="1.0" encoding="UTF-8"?>
<svg id="Layer_1" data-name="Layer 1" xmlns="http://www.w3.org/2000/svg" viewBox="0 0 144 144">
  <path d="M57.57,120.57c.29-.86.39-1.6.48-2.46-.13-5.6-.28-11.03-.72-16.58-2.51,4.29-2.48,7.24-1.39,11.94l1.63,7.09Z"/>
  <path d="M88.15,112.9c.59-2.59.77-5.06.24-7.52l-1.74-3.96c-.47,5.83-.64,11.24-.71,16.94,0,.74.23,1.56.47,2.2l1.74-7.65Z"/>
  <path d="M63.85,104.56c-2.08,3.92-2.64,10.1-2.35,14.85,1.36-6.57,4.24-6.46,2.35-14.85Z"/>
  <path d="M82.51,119.09c.16-4.44-.26-10.59-2.4-14.48-.76,3.41-1.02,6.23.42,9.22.83,1.72,1.33,3.37,1.98,5.26Z"/>
</svg>