<?xml version="1.0" encoding="UTF-8"?>
<svg id="Layer_1" data-name="Layer 1" xmlns="http://www.w3.org/2000/svg" viewBox="0 0 144 144">
  <defs>
    <style>
      .cls-1 {
        fill: #141414;
      }
    </style>
  </defs>
  <path class="cls-1" d="M43.66,49.01c-.5.67-.4,1.74-1.49,1.92-.2-.35-.2-1.3.13-1.73l2.53-3.32c.35-.46,1.32-1.09,1.38-1.72.24-2.69,1.36-4.98,3.51-6.67,1.76,2.34-2.51,2.74-2.97,7.47-.11,1.12.22,2.25.7,3.27-1.35,0-2.94-.35-3.79.79Z"/>
  <path class="cls-1" d="M100.65,49.62c-.46-1.77-2.54-1.41-4.14-1.42.45-.87.78-1.9.74-2.9-.19-4.92-4.81-5.51-2.97-7.76,2.26,1.6,3.28,4.2,3.57,6.99.67.8,5.08,5.22,4,6.41-.55-.18-1.03-.66-1.2-1.31Z"/>
</svg>