<?xml version="1.0" encoding="UTF-8"?>
<svg id="Layer_1" data-name="Layer 1" xmlns="http://www.w3.org/2000/svg" viewBox="0 0 144 144">
  <defs>
    <style>
      .cls-1 {
        fill: #141414;
      }
    </style>
  </defs>
  <path class="cls-1" d="M57.57,34.32c-1.36.63-2.1,1.23-1.8,2.91-1.36-.09-2.77-.11-3.92.55l-.63.36c-.86.49-1.59-8.24,3.93-10.91,1.95-.95,4.68-1.27,6.61-.18.74.42,1.11,1.59,2.21,1.82-4.45,1.49-3.78,2.96-6.39,5.44Z"/>
  <path class="cls-1" d="M88.21,37.17c-.04-3.66-1.15-1-3.26-4.5-1.17-1.94-2.69-3.11-4.95-3.79,1.09-.19,1.43-1.33,2.18-1.78,2.12-1.25,5.26-.78,7.3.51,2.49,1.58,3.48,4.26,3.76,7.06.12,1.23.23,2.3-.31,3.57-1.47-1.1-3.1-1.03-4.72-1.07Z"/>
</svg>