<?xml version="1.0" encoding="UTF-8"?>
<svg id="Layer_1" data-name="Layer 1" xmlns="http://www.w3.org/2000/svg" viewBox="0 0 144 144">
  <defs>
    <style>
      .cls-1 {
        fill: #141414;
      }
    </style>
  </defs>
  <path class="cls-1" d="M65.32,92.24c-.41.76-1.3,1.5-2.18.89-1.14-.81-1.36-1.99-1.85-2.4-.41-.34-1.82.95-2.53.26-1.25-1.2-1.86-2.77-2.02-4.48-.77-8.25,1.31-14.74,4.34-22.2,3.68,3.41,4.4,2.85,7.04,7.49.69,1.13,1.4,2.05,2.5,2.86.34,5.08-1.63,12-3.9,16.62-.27.56-.79.84-1.42.96Z"/>
  <path class="cls-1" d="M78.71,92.51c-.64-.5-1.3-.76-1.64-1.53-2.19-4.82-3.95-10.88-3.75-16.26,1.32-1,2.11-2.21,2.94-3.59,2.72-4.47,3.1-3.42,6.63-6.85,3.03,7.59,5.2,14.27,4.3,22.47-.19,1.74-.85,3.41-2.3,4.43-.53.04-1.36-.3-2.08-.62l-1.39,2.03c-.24.35-.92.79-1.29.77-.47-.03-.94-.47-1.42-.85Z"/>
</svg>