<?xml version="1.0" encoding="UTF-8"?>
<svg id="Layer_1" data-name="Layer 1" xmlns="http://www.w3.org/2000/svg" viewBox="0 0 144 144">
  <defs>
    <style>
      .cls-1 {
        fill: #141414;
      }
    </style>
  </defs>
  <path class="cls-1" d="M82.22,50.58c-.04,1.39-.21,2.59-.43,3.86-.16.95-.08,1.85-1.31,2.12l-3.96.87c-1.7.37-3.23.98-4.61,2-3.2-2.28-5.2-1.83-8.94-3-.97-.3-.79-1.01-.92-1.75-.23-1.27-.41-2.7-.49-4-1.42-1.93-3.07-3.74-3.94-6.04-1.5-3.97-2.26-4.15-3.4-7.69,2.76-1.48,2.66-.41,4.92-2.67.94-.94,1.94-1.6,3.36-1.86,2.18,3.74-.18,6.06,3.31,8.47,1.32.91,2.71,1.87,3.65,3.14.71.96,1.53,1.58,2.61,1.61,1.22.03,2.03-.68,2.79-1.68.95-1.25,2.34-2.18,3.63-3.1,3.45-2.46,1.12-4.54,3.24-8.34,1.16.31,2.04.9,2.88,1.72,2.6,2.53,1.98,1.09,4.9,2.73-.28,1.23-.7,2.18-1.29,3.21-.84,1.47-1.47,2.93-2.09,4.53-.85,2.19-2.37,4.05-3.92,5.89Z"/>
</svg>