<?xml version="1.0" encoding="UTF-8"?>
<svg id="Layer_1" data-name="Layer 1" xmlns="http://www.w3.org/2000/svg" viewBox="0 0 144 144">
  <defs>
    <style>
      .cls-1 {
        fill: #141414;
      }
    </style>
  </defs>
  <path class="cls-1" d="M83.68,91.39c-2.02-.34-1.46,1.98-3.2,2.1-.66.05-1.1-.53-1.65-.92-.5-.36-1.13-.66-1.41-1.26-2.65-5.81-4.33-13.11-4.74-19.68,1.74,1.29,3.66,1.73,5.72,1.18,2.62-.7,4.55-2.62,5.69-5.18,2.44,6.31,3.49,11.36,3.24,18.02-.28,1.98-.9,6.21-3.65,5.74Z"/>
  <path class="cls-1" d="M64.09,93.31c-2.31,1.16-1.81-2.75-4.23-1.99-1.88.59-3.06-3.36-3.19-4.76-.62-6.54.68-12.86,3.08-18.77,1.28,2.87,3.79,4.95,6.89,5.22,1.69.15,3.11-.37,4.54-1.49-.15,4.13-.99,8.02-1.96,12-.65,2.63-1.51,5.05-2.76,7.45-.49.94-1.37,1.85-2.35,2.34Z"/>
</svg>