<?xml version="1.0" encoding="UTF-8"?>
<svg id="Layer_1" data-name="Layer 1" xmlns="http://www.w3.org/2000/svg" viewBox="0 0 144 144">
  <defs>
    <style>
      .cls-1 {
        fill: #141414;
      }
    </style>
  </defs>
  <path class="cls-1" d="M44.9,49.12c.13-.39.43-.89.7-1.16,1.35-1.35,4.24-4.36,2.29-6.12-.88-.79-.58-1.63-.06-2.48,1.18-1.91,3.05-3.01,5.47-2.35.59,1.78,1.4,3.49,2.48,5.32-2.14,4.78-4.84,4.12-6.3,5.71-1.18,1.28-2.8,2.1-4.58,1.08Z"/>
  <path class="cls-1" d="M99.22,48.91c-1.4,1.34-3.41.5-4.61-.82-1.41-1.56-4.64-1.22-6.28-5.81.87-1.78,1.88-3.52,2.34-5.27,2.26-.64,4.08.24,5.31,2.04.44.65,1.13,1.69.42,2.41-2.56,2.6.83,4.99,2.81,7.45Z"/>
</svg>