<?xml version="1.0" encoding="UTF-8"?>
<svg id="Layer_1" data-name="Layer 1" xmlns="http://www.w3.org/2000/svg" viewBox="0 0 144 144">
  <defs>
    <style>
      .cls-1 {
        fill: #141414;
      }
    </style>
  </defs>
  <path class="cls-1" d="M61.32,120.79c-.1.93-.64,1.88-1.36,2.22-1.12.53-2.13-.41-2.37-1.52l-1.57-7.24c-.79-3.66-1.46-6.63.05-10.16,3.3-7.73,1.46-4.23,1.53-12.5,2.17,1.74,2.69-.32,3.65,1.47.37.69,1.13,1.22,1.87,1.38.81.17,1.57-.26,2.45-.77-.24,5.91-2.7,6.45-1.46,12.69,1.38,7.01-2.06,7.51-2.8,14.43Z"/>
  <path class="cls-1" d="M83.83,122.99c-.68-.34-1.18-1.34-1.26-2.06-.76-6.99-4.15-7.72-2.86-14.25,1.3-6.62-1.23-7.16-1.49-13.09.94.6,1.59,1.02,2.43.94.78-.08,1.61-.66,2.04-1.42,1.02-1.75,1.07.19,3.43-1.27.45,3.72-1.21,5.63.2,8.91,2.12,4.94,3.12,6.06,1.79,12.19l-1.89,8.68c-.22,1.03-1.26,1.93-2.39,1.37Z"/>
</svg>