<?xml version="1.0" encoding="UTF-8"?>
<svg id="Layer_1" data-name="Layer 1" xmlns="http://www.w3.org/2000/svg" viewBox="0 0 144 144">
  <defs>
    <style>
      .cls-1 {
        fill: #141414;
      }
    </style>
  </defs>
  <path class="cls-1" d="M61.75,31.56c-4.03,1.72-2.33,2.48-6.1,3.86-1.65.61-3.28.96-5.05.18.03-2.83.91-5.7,3.23-7.55,2.14-1.72,5.16-2.02,7.76-1.13-.45.41-1.15.9-1.34,1.3-.69,1.4.4,2.45,1.51,3.34Z"/>
  <path class="cls-1" d="M88.28,35.45c-3.69-1.37-2.28-2.23-6.07-3.84l1.11-1.13c.37-.38.65-1.4.47-1.96-.16-.52-.85-1.03-1.49-1.6,2.29-.78,4.96-.64,7.02.63,2.77,1.71,4,4.85,3.94,8.07-1.68.76-3.33.44-4.97-.17Z"/>
</svg>