<?xml version="1.0" encoding="UTF-8"?>
<svg id="Layer_1" data-name="Layer 1" xmlns="http://www.w3.org/2000/svg" viewBox="0 0 144 144">
  <defs>
    <style>
      .cls-1 {
        fill: #141414;
      }
    </style>
  </defs>
  <path class="cls-1" d="M53.43,56.05c-.92,1.05-1.51,1.87-2.15,3.08-3.18-1.22-6.01-3.46-7.68-6.49.77-.57,1.26-1.32,1.43-2.34,1.3.26,2.66.03,4.02-.54,1.12.4,1.81,1.87,2.17,3.01.72,2.24,1.35,1.53,2.2,3.28Z"/>
  <path class="cls-1" d="M92.76,59.15c-.71-1.29-1.23-2.05-2.2-3.08,1.21-2.19,1.3-.63,2.33-3.58.38-1.07,1.02-2.34,2.08-2.77,1.29.54,2.6.96,3.97.5.19,1,.65,1.74,1.46,2.45-1.67,2.99-4.42,5.19-7.64,6.47Z"/>
</svg>