<?xml version="1.0" encoding="UTF-8"?>
<svg id="Layer_1" data-name="Layer 1" xmlns="http://www.w3.org/2000/svg" viewBox="0 0 144 144">
  <defs>
    <style>
      .cls-1 {
        fill: #141414;
      }
    </style>
  </defs>
  <path class="cls-1" d="M73.64,43.79c-.82,1.07-2.27,1.02-3.01,0-2.27-3.09-4.58-3.43-5.52-5.12-.48-.87-.4-2.06-.52-3.04-.69-5.54-3.72-5.29-3.7-6.58.02-.98,2.19-2.06,3.57-2.34,2.03-.41,3.59-1.73,4.19-3.73h6.44c.59,2.04,2.22,3.39,4.37,3.73,1.53.24,3.36,1.45,3.51,2.15.09.39-.3,1.09-.63,1.36-3.31,2.63-2.35,7.06-3.21,8.51-.93,1.58-3.09,1.91-5.5,5.05Z"/>
</svg>