<?xml version="1.0" encoding="UTF-8"?>
<svg id="Layer_1" data-name="Layer 1" xmlns="http://www.w3.org/2000/svg" viewBox="0 0 144 144">
  <defs>
    <style>
      .cls-1 {
        fill: #fff;
      }
    </style>
  </defs>
  <path d="M75.68,92.04c-1.84-3.47-2.72-7.06-3.7-10.97-.93,4.28-2.14,8.41-4.3,12.16.13,2.91-.45,5.54-1.55,8.08-.62,1.43-.6,2.72-.3,4.26,1.78,9.19-2.66,8.54-2.89,17.67-.03,1.22-.11,2.39.21,3.62.21.79-.17,1.79-.11,2.48.12,1.39,1.75,1.4-.61,6.02-1.25,2.43-4.13,4.18-6.77,4.14-1.35-.02-2.58-.74-3.21-1.6-1.87-2.54-.14-5.2,1.82-7.26,1.76-1.84-.23-2.62,1.02-5.84,1.67-4.31-1.5-9.44-1.79-16.18-.2-4.82,2.9-7.47,2.71-10.92l-.4-7.45-.93-4.08c-.98-4.29,1.66-15.9,3.79-20.48-5.31-.01-4.49-3.19-7.11-4.72-4.32-1.46-7.4-4.55-10.03-8.14-.85-1.16-1.75-2.08-.93-3.79.55-1.15,2.82-4.12,3.99-5.16.23-3.16,1.84-5.88,4.32-7.84.2-4.03,1.4-7.86,5.02-9.98,2.32-1.36,4.95-1.4,7.54-.94,1.69.3,5.25-.41,5.01-1.69l-.58-3.04c-.68-1.22-1.37-2.14-1.18-3.7.26-2.22-.95-3.73.21-7.72.52-1.78,1.96-2.85,3.77-2.94,2.62-.13,1.39-1.5,5.74-1.51,2.51,0,3.86,1.36,4.61,3.52.4,1.16,1.18,2.17,1.02,3.59l-.39,3.53c-.16,1.41.29,3-.59,4.19-1.65,2.23.12,2.12-1.79,4.76,3.87,2.69,7.63-.99,12.67,1.92,2.62,1.51,4.33,4.19,4.71,7.17l.36,2.8c2.5,1.93,4.08,4.66,4.36,7.83,1.34,1.42,3.58,3.98,4.16,5.71.5,1.5-.35,2.18-1.07,3.18-2.58,3.62-5.69,6.67-9.98,8.19-2.67,1.45-1.96,4.84-7.21,4.73,2.21,4.81,4.84,16.39,3.73,20.94l-.89,3.65-.38,7.3c-.2,3.84,2.98,6.14,2.7,11.29-.25,4.54-1.49,7.49-2.25,12.17-.21,1.27.02,2.56.46,3.73,1.34,3.59-.87,3.93,1.2,6.09,1.27,1.32,2.3,2.93,2.57,4.75.21,1.41-.35,2.81-1.58,3.38-2.26,1.05-4.62.5-6.6-.71-1.83-1.11-2.71-2.62-3.48-4.53-.6-1.49-.73-2.97.3-4.38-.34-.88-.43-1.85-.19-2.81.29-1.23.14-2.53.11-3.78-.25-8.47-4.6-8.13-2.85-17.13.31-1.59.33-2.88-.32-4.36-1.04-2.37-1.58-4.87-1.54-7.5-.08-.61-.3-1.1-.62-1.71ZM76.49,21.7c.21-.82.14-1.96.26-2.67.67-.4,1.23-.93,1.2-1.7l-.1-2.22c-1.81-.18.1-2.59-1.48-5.16-2.81-.63-5.64-.69-8.4.06-1.37,2.54.35,4.99-1.41,5.09,0,1.84-.55,3.05,1.15,4,.13.77,0,2.12.27,2.83.76,1.95,2.57,2.81,4.44,2.75,1.67-.06,3.57-.99,4.08-2.99ZM73.65,28.49l4.62.09c.94.02,2.05-.87,2.85-1.53l-2.88-.59c-1.05-.21-1.94-.89-2.68-1.67-2.3,1.39-5.25,1.34-7.33-.52-.6.84-1.35,1.73-2.38,1.99l-3.07.78c.76.64,1.93,1.56,2.85,1.54l4.43-.12c1.1-.03,1.61.9,1.89,1.81.25-.92.73-1.8,1.69-1.78ZM57.57,34.32c2.61-2.48,1.94-3.95,6.39-5.44-1.11-.24-1.47-1.4-2.21-1.82-1.93-1.09-4.66-.76-6.61.18-5.52,2.67-4.79,11.4-3.93,10.91l.63-.36c1.16-.66,2.56-.64,3.92-.55-.29-1.68.44-2.28,1.8-2.91ZM88.21,37.17c1.62.04,3.25-.02,4.72,1.07.54-1.27.44-2.34.31-3.57-.28-2.79-1.27-5.48-3.76-7.06-2.04-1.3-5.19-1.76-7.3-.51-.75.44-1.09,1.59-2.18,1.78,2.26.68,3.78,1.85,4.95,3.79,2.12,3.5,3.22.83,3.26,4.5ZM62.56,39.79c2.61-.77,4.97-1.74,7.38-3.01,2.03-1.07,1.33-5.25.87-7.32-2.21-.34-4.32-.09-6.48.31s-3.54,1.61-4.63,3.4c-2.04,3.35-3.22,1.77-3.15,3.39.02.57.52.76,1.08,1.09,1.82,1.09,2.78,2.77,4.93,2.14ZM87.01,37.24c.3-.16.44-1,.26-1.26s-.62-.45-1.08-.7c-2.35-1.26-2.23-5.05-7.53-5.69-1.86-.22-3.65-.46-5.54-.11-.49,1.92-1.14,6.28.82,7.29,2.36,1.22,4.69,2.2,7.2,2.97s3.09-1,5.86-2.49ZM71.83,41.69c1.76-.86,3.58-.27,5.13.68,2.55,1.57,2.29,4.02,1.61,6.7.59,4.06-1.28,3.45-.53,5.54,1.76,4.93-1.25,4.39-1.9,9.12l-1.01,7.31c1.53-2.58,3.27-4.53,5.68-6.13,1.65-1.09,2.16-2.91,1.59-4.77-1.36-4.51.04-5.1-.12-9.57,3.07-3.83,3.78-4.79,4.17-9.53.07-.86.98-1.77.19-2.68l-2.13,1.66c-.95.74-2.22.9-3.36.57-2.72-.79-5.21-1.81-7.7-3.14-.68-.36-1.15-1.11-1.51-1.89-.1,2.17-7.19,4.45-9.19,5.04-1.14.34-2.41.16-3.36-.58l-2.06-1.6c-.8.87.11,1.76.18,2.59.37,4.82,1.19,5.8,4.17,9.59-.15,4.31,1.21,5.12-.07,9.41-.71,2.04,0,3.9,1.75,5.1,2.23,1.38,3.76,3.19,5.23,5.49-.31-2.49-.65-4.7-1.05-7.03-.83-4.76-3.6-4.17-1.85-8.98.75-2.06-1.15-1.61-.5-5.37-.42-1.57-.75-3.42-.12-5.02.73-1.83,4.58-3.81,6.77-2.52ZM43.66,49.01c.85-1.14,2.44-.79,3.79-.79-.48-1.01-.81-2.14-.7-3.27.46-4.72,4.73-5.12,2.97-7.47-2.15,1.69-3.26,3.98-3.51,6.67-.06.64-1.02,1.26-1.38,1.72l-2.53,3.32c-.33.43-.33,1.38-.13,1.73,1.08-.18.99-1.25,1.49-1.92ZM100.65,49.62c.17.65.65,1.14,1.2,1.31,1.08-1.19-3.34-5.61-4-6.41-.29-2.78-1.31-5.39-3.57-6.99-1.84,2.26,2.79,2.84,2.97,7.76.04,1-.29,2.04-.74,2.9,1.61,0,3.69-.35,4.14,1.42ZM48.65,47.84c.74-.08,1.61-.27,2.04-.53,1.88-1.12,5.77-4.35,5.68-6.38l-.12-2.75c-1.02-.13-2.63-.27-3.66.24l-1.54.76c-.65.86-1.22,1.61-1.91,2.39-2.44,2.77-1.41,6.37-.48,6.27ZM95.5,47.95c1.67-1.91.68-4.89-.67-6.42-.68-.76-1.26-1.51-1.9-2.33-2.2-1.2-2.48-1.29-5.13-1.05l-.2,2.56c-.18,2.32,5.12,7.19,7.9,7.23ZM69.78,47.98c1.05-.08,1.67-1.32,1.65-2.22l-.08-3.44c-2.17-.51-4.55.38-5.54,2.4-.48.98-.12,2.48-.02,3.57l3.98-.31ZM73.86,47.99l4.17.26c-.01-1.25.34-2.57-.12-3.53-.98-2.03-3.48-2.94-5.55-2.36-.09,1.4-.51,5.51,1.49,5.63ZM56.29,55.02c1.33-1.14,2.76-.48,4.06.65l-.39-4.42c-1.5-1.99-2.93-3.87-3.65-6.41-1.56,1.69-3.16,3.12-5.17,4.24,1.1,1.15,1.42,2.62,2.18,3.98.01.02,1.88,2.49,2.28,2.39.16-.04.45-.23.68-.43ZM88.97,55.16l1.82-2.2c.51-1.38,1.13-2.73,2.03-3.9-1.9-1.1-3.5-2.46-5.1-4.16-.85,2.44-2.17,4.47-3.7,6.33l-.39,4.41c3.84-3.1,4.21.88,5.34-.48ZM70.25,53.14c1.69.2,1.1-3.5,1.04-4.45l-5.18.53c-.33,1.16-.37,2.69.47,3.48l3.66.44ZM77.34,52.7c.5-1.28.59-2.26.3-3.52l-5.19-.5c-.24,1.58-.23,2.9.22,4.38,1.69-.03,3.01-.15,4.67-.37ZM53.58,55.96l-1.28-1.52c-1.37-1.62-1.14-3.74-3-4.71-1.41-.73-3.47-1.03-4.85-.34-.34.85-.74,1.7-1.49,2.28,2.04,3.22,4.85,5.86,8.4,7.33.67-1.12,1.21-1.87,2.23-3.04ZM92.69,59.02c3.6-1.56,6.46-4.2,8.39-7.4-.83-.59-1.16-1.51-1.48-2.25-1.4-.65-3.24-.37-4.65.24-1.1.48-1.7,1.64-2.09,2.72-1.08,3.02-1.11,1.47-2.38,3.69.98.98,1.52,1.81,2.23,3ZM75.22,64.03c.95-6.2,3.99-4.33,1.59-10.36-1.39.17-2.54.19-3.64.47s-1.56.27-2.64,0c-1.14-.29-2.45-.34-3.69-.47l-.71,2.44c-.42,1.44.16,2.43.85,3.53,1.19,1.9,1.5,4.21,1.84,6.42l.93,5.96c.13.8,1.04,1.61,1.67,1.75.72.15,2.02.07,2.4-.61l1.4-9.13ZM59.9,63.7c.64-1.63,1-3.19,1.28-4.97l-1.63-.58c0-.81-.87-2.16-1.81-1.94-1.14.56-2.22,1.47-3.57.58-.79.74-1.43,1.61-1.83,2.57,3.36,1.44,1.82,5.26,7.56,4.34ZM91.6,59.37c-.3-.92-1.03-1.95-1.79-2.55-1.36.8-2.33-.02-3.51-.56-.91-.42-1.88,1.11-1.89,1.9l-1.59.55c.2,1.6.61,3.37,1.23,4.89,5.5,1.27,4.41-2.87,7.55-4.24ZM65.32,92.24c.63-.12,1.14-.4,1.42-.96,2.27-4.62,4.24-11.54,3.9-16.62-1.1-.82-1.81-1.73-2.5-2.86-2.64-4.64-3.36-4.08-7.04-7.49-3.03,7.46-5.12,13.95-4.34,22.2.16,1.71.77,3.28,2.02,4.48.71.69,2.12-.6,2.53-.26.49.41.71,1.6,1.85,2.4.87.62,1.76-.13,2.18-.89ZM78.71,92.51c.48.37.95.81,1.42.85.37.03,1.05-.42,1.29-.77l1.39-2.03c.72.32,1.55.66,2.08.62,1.45-1.02,2.11-2.68,2.3-4.43.9-8.2-1.27-14.88-4.3-22.47-3.54,3.43-3.92,2.38-6.63,6.85-.84,1.38-1.63,2.59-2.94,3.59-.2,5.38,1.56,11.44,3.75,16.26.35.76,1,1.03,1.64,1.53ZM61.54,132.91c.28-.8.66-1.76.02-2.41-.89-.91-.1-1.75-.17-2.65l-.35-4.39c-.13-1.69-.77-3.33-.72-5.11.21-7.11.45-10.11,3.57-16.39,1.33-2.67,2.13-5.5,2.05-8.48-.88.62-1.8,1.13-2.8.81s-1.73-1.5-2.34-2.3c-1.13.28-2.1.48-3.14-.42.03,1.96.08,3.66.27,5.54l.34,3.38c.58,5.81.68,11.56.81,17.41.04,1.97-.61,3.55-1.47,5.24-.24.48-.39,1.28-.59,1.83-.39,1.07-.5,2.06-.32,3.19.48,2.95-1.48,3.19-3.08,6.27-.65,1.25-.05,2.65,1.27,3.06s2.6-.06,3.73-.72c1.55-.9,2.31-2.12,2.91-3.86ZM85.15,136.65c1.54.96,3.44,1.52,5.12.54.52-.3.57-1.58.33-2.16-1.54-3.7-3.89-3.66-3.33-6.94.19-1.1.03-2.1-.33-3.13-.21-.59-.36-1.31-.6-1.85-.66-1.46-1.43-2.85-1.42-4.56.05-6.17.22-12.23.81-18.37l.3-3.1c.18-1.88.26-3.58.25-5.54-1.04.96-1.99.7-3.12.42-.57.78-1.3,1.91-2.2,2.27-1.13.45-2.14-.12-2.92-.92-.23,7.02,3.82,9.99,4.92,16.57.47,2.82.61,5.6.69,8.47.05,1.76-.55,3.39-.7,5.08l-.39,4.41c-.07.8.77,1.64-.05,2.49s-.37,1.77-.06,2.64c.56,1.54,1.17,2.73,2.69,3.68ZM57.57,120.57c.29-.86.39-1.6.48-2.46-.13-5.6-.28-11.03-.72-16.58-2.51,4.29-2.48,7.24-1.39,11.94l1.63,7.09ZM88.15,112.9c.59-2.59.77-5.06.24-7.52l-1.74-3.96c-.47,5.83-.64,11.24-.71,16.94,0,.74.23,1.56.47,2.2l1.74-7.65ZM63.85,104.56c-2.08,3.92-2.64,10.1-2.35,14.85,1.36-6.57,4.24-6.46,2.35-14.85ZM82.51,119.09c.16-4.44-.26-10.59-2.4-14.48-.76,3.41-1.02,6.23.42,9.22.83,1.72,1.33,3.37,1.98,5.26Z"/>
  <path class="cls-1" d="M71.83,41.69c-2.18-1.3-6.04.69-6.77,2.52-.64,1.6-.3,3.46.12,5.02-.65,3.76,1.25,3.3.5,5.37-1.75,4.8,1.02,4.22,1.85,8.98.41,2.33.75,4.54,1.05,7.03-1.46-2.3-3-4.11-5.23-5.49-1.76-1.2-2.46-3.06-1.75-5.1,1.28-4.29-.07-5.09.07-9.41-2.98-3.8-3.8-4.78-4.17-9.59-.06-.82-.98-1.71-.18-2.59l2.06,1.6c.96.74,2.22.91,3.36.58,2-.59,9.1-2.87,9.19-5.04.36.79.82,1.53,1.51,1.89,2.49,1.33,4.98,2.36,7.7,3.14,1.13.33,2.41.16,3.36-.57l2.13-1.66c.79.91-.12,1.82-.19,2.68-.39,4.75-1.1,5.71-4.17,9.53.17,4.47-1.24,5.06.12,9.57.57,1.86.06,3.67-1.59,4.77-2.41,1.6-4.15,3.55-5.68,6.13l1.01-7.31c.65-4.73,3.66-4.19,1.9-9.12-.75-2.09,1.12-1.48.53-5.54.68-2.69.94-5.13-1.61-6.7-1.55-.95-3.37-1.54-5.13-.68Z"/>
  <path class="cls-1" d="M65.32,92.24c-.41.76-1.3,1.5-2.18.89-1.14-.81-1.36-1.99-1.85-2.4-.41-.34-1.82.95-2.53.26-1.25-1.2-1.86-2.77-2.02-4.48-.77-8.25,1.31-14.74,4.34-22.2,3.68,3.41,4.4,2.85,7.04,7.49.69,1.13,1.4,2.05,2.5,2.86.34,5.08-1.63,12-3.9,16.62-.27.56-.79.84-1.42.96Z"/>
  <path class="cls-1" d="M78.71,92.51c-.64-.5-1.3-.76-1.64-1.53-2.19-4.82-3.95-10.88-3.75-16.26,1.32-1,2.11-2.21,2.94-3.59,2.72-4.47,3.1-3.42,6.63-6.85,3.03,7.59,5.2,14.27,4.3,22.47-.19,1.74-.85,3.41-2.3,4.43-.53.04-1.36-.3-2.08-.62l-1.39,2.03c-.24.35-.92.79-1.29.77-.47-.03-.94-.47-1.42-.85Z"/>
  <path class="cls-1" d="M85.15,136.65c-1.53-.95-2.13-2.13-2.69-3.68-.32-.87-.72-1.83.06-2.64.82-.86-.02-1.69.05-2.49l.39-4.41c.15-1.69.75-3.32.7-5.08-.08-2.87-.22-5.65-.69-8.47-1.1-6.58-5.16-9.54-4.92-16.57.77.8,1.79,1.37,2.92.92.91-.36,1.63-1.48,2.2-2.27,1.13.27,2.08.54,3.12-.42.01,1.96-.06,3.66-.25,5.54l-.3,3.1c-.59,6.14-.77,12.2-.81,18.37-.01,1.71.76,3.09,1.42,4.56.24.54.39,1.26.6,1.85.36,1.03.52,2.03.33,3.13-.56,3.28,1.79,3.24,3.33,6.94.24.57.19,1.85-.33,2.16-1.68.98-3.58.43-5.12-.54Z"/>
  <path class="cls-1" d="M61.54,132.91c-.6,1.74-1.36,2.96-2.91,3.86-1.13.65-2.39,1.13-3.73.72s-1.92-1.81-1.27-3.06c1.6-3.08,3.56-3.33,3.08-6.27-.18-1.13-.08-2.12.32-3.19.2-.54.35-1.35.59-1.83.86-1.69,1.51-3.27,1.47-5.24-.13-5.85-.23-11.6-.81-17.41l-.34-3.38c-.19-1.87-.24-3.58-.27-5.54,1.03.91,2,.7,3.14.42.62.8,1.33,1.97,2.34,2.3s1.91-.19,2.8-.81c.08,2.99-.72,5.81-2.05,8.48-3.11,6.28-3.36,9.28-3.57,16.39-.05,1.78.58,3.42.72,5.11l.35,4.39c.07.91-.72,1.74.17,2.65.64.66.26,1.61-.02,2.41Z"/>
  <path class="cls-1" d="M75.22,64.03l-1.4,9.13c-.38.68-1.68.76-2.4.61-.63-.13-1.55-.95-1.67-1.75l-.93-5.96c-.34-2.21-.66-4.52-1.84-6.42-.69-1.1-1.27-2.09-.85-3.53l.71-2.44c1.23.13,2.55.19,3.69.47s1.57.28,2.64,0,2.25-.3,3.64-.47c2.4,6.02-.64,4.16-1.59,10.36Z"/>
  <path class="cls-1" d="M76.49,21.7c-.51,2-2.41,2.93-4.08,2.99-1.87.06-3.68-.8-4.44-2.75-.27-.71-.15-2.07-.27-2.83-1.7-.95-1.16-2.16-1.15-4,1.75-.09.04-2.55,1.41-5.09,2.76-.75,5.59-.69,8.4-.06,1.58,2.57-.32,4.97,1.48,5.16l.1,2.22c.03.77-.52,1.3-1.2,1.7-.12.71-.05,1.84-.26,2.67Z"/>
  <path class="cls-1" d="M87.01,37.24c-2.77,1.5-3.33,3.27-5.86,2.49s-4.85-1.75-7.2-2.97c-1.96-1.01-1.31-5.37-.82-7.29,1.89-.35,3.68-.11,5.54.11,5.3.64,5.17,4.43,7.53,5.69.47.25.91.45,1.08.7s.04,1.1-.26,1.26Z"/>
  <path class="cls-1" d="M62.56,39.79c-2.15.63-3.11-1.05-4.93-2.14-.56-.34-1.06-.53-1.08-1.09-.07-1.62,1.11-.04,3.15-3.39,1.09-1.78,2.56-3.02,4.63-3.4s4.26-.65,6.48-.31c.46,2.06,1.17,6.25-.87,7.32-2.41,1.27-4.78,2.24-7.38,3.01Z"/>
  <path class="cls-1" d="M57.57,34.32c-1.36.63-2.1,1.23-1.8,2.91-1.36-.09-2.77-.11-3.92.55l-.63.36c-.86.49-1.59-8.24,3.93-10.91,1.95-.95,4.68-1.27,6.61-.18.74.42,1.11,1.59,2.21,1.82-4.45,1.49-3.78,2.96-6.39,5.44Z"/>
  <path class="cls-1" d="M88.21,37.17c-.04-3.66-1.15-1-3.26-4.5-1.17-1.94-2.69-3.11-4.95-3.79,1.09-.19,1.43-1.33,2.18-1.78,2.12-1.25,5.26-.78,7.3.51,2.49,1.58,3.48,4.26,3.76,7.06.12,1.23.23,2.3-.31,3.57-1.47-1.1-3.1-1.03-4.72-1.07Z"/>
  <path class="cls-1" d="M92.69,59.02c-.7-1.19-1.25-2.01-2.23-3,1.28-2.22,1.3-.67,2.38-3.69.39-1.08.99-2.24,2.09-2.72,1.41-.62,3.25-.89,4.65-.24.33.74.66,1.66,1.48,2.25-1.93,3.19-4.78,5.84-8.39,7.4Z"/>
  <path class="cls-1" d="M53.58,55.96c-1.02,1.17-1.56,1.92-2.23,3.04-3.55-1.48-6.36-4.11-8.4-7.33.75-.58,1.15-1.43,1.49-2.28,1.38-.69,3.44-.39,4.85.34,1.86.97,1.63,3.08,3,4.71l1.28,1.52Z"/>
  <path class="cls-1" d="M48.65,47.84c-.92.1-1.96-3.51.48-6.27.69-.78,1.26-1.53,1.91-2.39l1.54-.76c1.03-.51,2.64-.37,3.66-.24l.12,2.75c.09,2.04-3.79,5.26-5.68,6.38-.43.25-1.3.45-2.04.53Z"/>
  <path class="cls-1" d="M95.5,47.95c-2.77-.05-8.08-4.91-7.9-7.23l.2-2.56c2.65-.24,2.93-.16,5.13,1.05.64.82,1.22,1.57,1.9,2.33,1.35,1.52,2.34,4.51.67,6.42Z"/>
  <path class="cls-1" d="M73.65,28.49c-.96-.02-1.44.86-1.69,1.78-.28-.91-.79-1.84-1.89-1.81l-4.43.12c-.93.03-2.1-.9-2.85-1.54l3.07-.78c1.02-.26,1.78-1.15,2.38-1.99,2.07,1.86,5.03,1.91,7.33.52.74.78,1.64,1.46,2.68,1.67l2.88.59c-.81.66-1.91,1.55-2.85,1.53l-4.62-.09Z"/>
  <path class="cls-1" d="M91.6,59.37c-3.15,1.37-2.06,5.51-7.55,4.24-.62-1.52-1.02-3.29-1.23-4.89l1.59-.55c0-.8.98-2.32,1.89-1.9,1.18.54,2.15,1.36,3.51.56.76.6,1.49,1.63,1.79,2.55Z"/>
  <path class="cls-1" d="M59.9,63.7c-5.74.93-4.2-2.9-7.56-4.34.4-.96,1.04-1.83,1.83-2.57,1.35.89,2.43-.03,3.57-.58.94-.22,1.81,1.13,1.81,1.94l1.63.58c-.28,1.79-.64,3.34-1.28,4.97Z"/>
  <path class="cls-1" d="M88.15,112.9l-1.74,7.65c-.24-.63-.48-1.46-.47-2.2.07-5.7.25-11.1.71-16.94l1.74,3.96c.53,2.46.35,4.93-.24,7.52Z"/>
  <path class="cls-1" d="M57.57,120.57l-1.63-7.09c-1.08-4.7-1.12-7.65,1.39-11.94.44,5.55.6,10.98.72,16.58-.09.86-.19,1.6-.48,2.46Z"/>
  <path class="cls-1" d="M69.78,47.98l-3.98.31c-.1-1.1-.46-2.6.02-3.57.98-2.01,3.36-2.9,5.54-2.4l.08,3.44c.02.9-.6,2.14-1.65,2.22Z"/>
  <path class="cls-1" d="M73.86,47.99c-2.01-.12-1.58-4.23-1.49-5.63,2.07-.59,4.56.32,5.55,2.36.46.96.11,2.27.12,3.53l-4.17-.26Z"/>
  <path class="cls-1" d="M63.85,104.56c1.89,8.39-.99,8.28-2.35,14.85-.29-4.75.27-10.93,2.35-14.85Z"/>
  <path class="cls-1" d="M82.51,119.09c-.65-1.89-1.16-3.54-1.98-5.26-1.44-2.99-1.18-5.8-.42-9.22,2.14,3.89,2.56,10.04,2.4,14.48Z"/>
  <path class="cls-1" d="M77.34,52.7c-1.66.21-2.98.33-4.67.37-.45-1.49-.45-2.8-.22-4.38l5.19.5c.29,1.25.2,2.24-.3,3.52Z"/>
  <path class="cls-1" d="M70.25,53.14l-3.66-.44c-.84-.79-.81-2.32-.47-3.48l5.18-.53c.06.96.64,4.66-1.04,4.45Z"/>
  <path class="cls-1" d="M43.66,49.01c-.5.67-.4,1.74-1.49,1.92-.2-.35-.2-1.3.13-1.73l2.53-3.32c.35-.46,1.32-1.09,1.38-1.72.24-2.69,1.36-4.98,3.51-6.67,1.76,2.34-2.51,2.74-2.97,7.47-.11,1.12.22,2.25.7,3.27-1.35,0-2.94-.35-3.79.79Z"/>
  <path class="cls-1" d="M100.65,49.62c-.46-1.77-2.54-1.41-4.14-1.42.45-.87.78-1.9.74-2.9-.19-4.92-4.81-5.51-2.97-7.76,2.26,1.6,3.28,4.2,3.57,6.99.67.8,5.08,5.22,4,6.41-.55-.18-1.03-.66-1.2-1.31Z"/>
</svg>