<?xml version="1.0" encoding="UTF-8"?>
<svg id="Layer_1" data-name="Layer 1" xmlns="http://www.w3.org/2000/svg" viewBox="0 0 144 144">
  <defs>
    <style>
      .cls-1 {
        fill: #fff;
      }
    </style>
  </defs>
  <path d="M71.91,79.17c-1.11,4.9-2.04,9.34-4.52,13.81-.27,2.58-.49,5.01-1.45,7.41-.7,1.76-.61,3.46-.26,5.32,1.69,9.01-2.65,8.55-2.87,17.14-.03,1.17-.22,2.44.1,3.59.3,1.06.02,2.16-.23,3.1.6,2.22,1.43,4.4,1.18,6.72-.17,1.59-1.28,2.89-2.87,3.12-2.15.31-4.62.19-5.91-1.71-2.25-.32-4.41-1.34-5.39-3.53-.6-1.33-.28-3.2.66-4.29,1.16-1.36,2.94-1.34,4.64-.94-.7-4.16,1.53-4.66.69-8.49l-1.56-7.09c-.55-2.5-.87-5.09-.34-7.59.62-2.94,2.92-5.99,2.42-8.48-.47-2.31.07-4.58-.39-6.82l-.89-4.32c-.98-4.77,1.65-15.71,3.79-20.53-2.44.17-4.42-.92-5.51-3.02-1.65-3.17-4.04-.14-10.68-8.56l-1.85-2.35c-.81-1.03-.2-2.74.52-3.68l2.04-2.67c.38-.5.92-1.01,1.37-1.51.27-3.14,1.84-5.95,4.33-7.83.16-4.08,1.5-7.95,5.19-9.99,2.58-1.42,5.36-1.2,8.14-.64,1.5.3,3.25-.46,4.43-1.2-2.01-3.19,0-2.16-1.91-5.05-.74-1.12-.35-2.67-.46-4-.14-1.8-.84-3.88-.03-5.62l1.33-2.89c.72-1.56,2.53-2.01,4.12-2.04,3.55-.05,2.97,1.37,5.4,1.51,1.86.11,3.31,1.21,3.79,3.04,1.12,4.3-.15,5.2.17,7.61.21,1.57-.58,2.34-1.12,3.55-.37.83-.36,2.34-.73,3.39,1.02,1.29,3.12,1.98,4.8,1.62,2.85-.61,5.81-.6,8.28,1.07,3.14,2.1,4.59,5.65,4.5,9.47,2.69,1.86,4.21,4.76,4.62,8.01l2.88,3.49c.96,1.16,2.04,3.02.95,4.4l-1.74,2.23c-2.39,3.06-5.12,5.61-8.81,6.93-2.88,1.05-1.78,4.86-7.59,4.73,2.82,7.52,4.62,14.16,3.57,22.22-.13.97-.82,2.01-.82,2.93,0,2.42-.11,4.57-.32,6.95-.31,3.44,3.31,6.1,2.72,11.94-.46,4.61-1.5,6.92-2.22,11.5-.53,3.35,1.51,3.85.74,7.78,1.65-.35,3.42-.44,4.61.86.99,1.08,1.32,2.94.76,4.32-.94,2.3-3.24,3.17-5.43,3.66-1.43,1.82-3.58,1.92-5.82,1.65-4.52-.55-2.86-7.04-1.69-9.82-.99-2.38-.05-2-.17-6.24-.26-9.25-4.51-8.42-2.97-17.33.3-1.74.56-3.45-.05-5.11-.93-2.51-1.51-5.05-1.58-7.75-2.47-4.58-3.29-8.69-4.56-13.96ZM77.43,17.42l-.04-1.78c-.44,1.44-1.85,4.79-3.4,4.94-1.71.16-3.32.1-5.04-.1-.73-.08-.83-.74-1.13-1.22-.77-1.21-1.33-2.28-1.78-3.65l-.05,1.86c-.02.72.58,1.25,1.22,1.64l.15,2.5c0,.16.18.49.25.59.06.08.41-.26.55-.26l7.86-.03.23-2.87c.7-.33,1.2-.88,1.19-1.63ZM73.64,43.79c2.41-3.14,4.56-3.47,5.5-5.05.86-1.45-.1-5.88,3.21-8.51.33-.26.72-.97.63-1.36-.16-.7-1.99-1.91-3.51-2.15-2.15-.34-3.78-1.69-4.37-3.74h-6.44c-.6,2.01-2.16,3.33-4.19,3.74-1.39.28-3.56,1.36-3.57,2.34-.02,1.29,3.02,1.04,3.7,6.58.12.98.04,2.18.52,3.04.93,1.69,3.25,2.04,5.52,5.12.75,1.02,2.19,1.06,3.01,0ZM61.75,31.56c-1.11-.89-2.19-1.94-1.51-3.34.19-.39.89-.89,1.34-1.3-2.6-.89-5.61-.59-7.76,1.13-2.31,1.86-3.19,4.72-3.23,7.55,1.77.78,3.4.42,5.05-.18,3.77-1.39,2.07-2.14,6.1-3.86ZM88.28,35.45c1.65.61,3.3.93,4.97.17.06-3.23-1.17-6.36-3.94-8.07-2.05-1.27-4.72-1.41-7.02-.63.64.58,1.33,1.09,1.49,1.6.18.57-.1,1.58-.47,1.96l-1.11,1.13c3.79,1.61,2.38,2.47,6.07,3.84ZM82.22,50.58c1.55-1.84,3.07-3.7,3.92-5.89.62-1.6,1.24-3.06,2.09-4.53.59-1.02,1-1.98,1.29-3.21-2.92-1.64-2.3-.2-4.9-2.73-.84-.82-1.72-1.41-2.88-1.72-2.12,3.8.21,5.88-3.24,8.34-1.29.92-2.68,1.85-3.63,3.1-.76,1-1.57,1.71-2.79,1.68-1.08-.03-1.89-.64-2.61-1.61-.94-1.27-2.33-2.23-3.65-3.14-3.49-2.4-1.13-4.72-3.31-8.47-1.42.25-2.42.92-3.36,1.86-2.26,2.26-2.16,1.2-4.92,2.67,1.14,3.53,1.9,3.71,3.4,7.69.87,2.3,2.52,4.11,3.94,6.04.08,1.3.25,2.73.49,4,.13.74-.04,1.45.92,1.75,3.73,1.16,5.74.72,8.94,3,1.39-1.01,2.92-1.62,4.61-2l3.96-.87c1.23-.27,1.15-1.17,1.31-2.12.22-1.27.38-2.47.43-3.86ZM99.22,48.91c-1.98-2.46-5.37-4.85-2.81-7.45.71-.72.02-1.77-.42-2.41-1.23-1.8-3.04-2.68-5.31-2.04-.47,1.76-1.48,3.49-2.34,5.27,1.64,4.59,4.87,4.25,6.28,5.81,1.19,1.32,3.2,2.16,4.61.82ZM44.9,49.12c1.78,1.02,3.4.2,4.58-1.08,1.46-1.59,4.16-.93,6.3-5.71-1.08-1.83-1.89-3.53-2.48-5.32-2.42-.66-4.29.44-5.47,2.35-.52.85-.82,1.69.06,2.48,1.95,1.76-.94,4.77-2.29,6.12-.26.27-.57.77-.7,1.16ZM44.01,49.88c-.33-.87.13-1.58.67-2.17,1.07-1.17,3.45-3.48,2.9-4.78-.15-.36-.58-.76-1-1.11l-.58,2.76c-1.39,1.52-2.6,3.01-3.79,4.68-.59.82-.3,2.16.85,2.49.66.2,1.2-1.21.95-1.87ZM101.05,51.71c.52-.16,1.06-.85,1.06-1.23,0-.35-.21-1.12-.44-1.43l-2.23-2.91c-.32-.42-1.29-1.08-1.4-1.57l-.63-2.76c-.39.34-.84.8-1.01,1.16-.55,1.19,2.09,3.85,3.08,4.94.42.46.77,1.18.55,1.83-.25.74.12,2.24,1.01,1.97ZM89.06,55.33c.45-.7,1.43-1.63,1.79-2.29.79-1.45,1.05-2.71,2.25-4.04l-1.88-1.03c-1.35-.74-2.43-1.72-3.38-3.07-1.01,2.31-2.4,4.33-4.03,6.27.06,2.64-.83,2.79-.37,5l1.25-1.17c2.09-1.96,3.69,1.39,4.37.34ZM59.1,54.85l1.28,1.05c.39-1.78-.44-2.29-.41-4.74-1.55-1.87-2.87-3.82-3.95-6.06-.73.93-1.55,1.9-2.54,2.45l-2.6,1.45c1.29,1.23,1.3,2.77,2.25,3.98l1.78,2.28c.86,1.1,2.17-2.1,4.2-.42ZM53.43,56.05c-.85-1.76-1.48-1.04-2.2-3.28-.37-1.14-1.05-2.61-2.17-3.01-1.37.57-2.72.8-4.02.54-.17,1.01-.66,1.76-1.43,2.34,1.67,3.04,4.5,5.27,7.68,6.49.64-1.21,1.23-2.03,2.15-3.08ZM92.76,59.15c3.22-1.28,5.97-3.48,7.64-6.47-.81-.71-1.27-1.45-1.46-2.45-1.37.46-2.67.04-3.97-.5-1.06.42-1.7,1.69-2.08,2.77-1.03,2.94-1.12,1.39-2.33,3.58.97,1.03,1.49,1.79,2.2,3.08ZM59.79,63.87c.65-1.67,1.08-3.35,1.3-5.07l-1.04-.57c-.72-.91-1.42-1.71-2.31-2.29-1.07,1.17-2.21,1.61-3.61.94-.78.6-1.46,1.57-1.85,2.54,3.58,1.68,1.53,4.96,7.52,4.44ZM91.74,59.42c-.36-.95-1.03-1.88-1.8-2.54-1.49.72-2.55.15-3.79-.95l-2.31,2.33c-.19.19-.91.57-.88.82.2,1.44.65,3.25,1.18,4.58,5.46,1.34,4.48-2.96,7.59-4.24ZM68.96,71.68c1.38-.57,2.34-1.8,2.39-3.31.08-2.75.06-5.37-.01-8.13-2.16-1.46-7.8-3.8-9.14-.52l-1.31,3.72c-.92,2.6-.05,5.2,2.01,6.91,1.71,1.42,3.83,2.07,6.07,1.33ZM80.8,70.42c2.12-1.7,3.04-4.3,2.14-6.85l-1.21-3.43c-1.1-3.91-7.02-1.4-9.29.1l-.03,7.91c0,1.76,1.14,3.19,2.78,3.63,2.02.54,3.95-.03,5.61-1.37ZM64.09,93.31c.98-.49,1.86-1.4,2.35-2.34,1.25-2.4,2.11-4.81,2.76-7.45.98-3.98,1.81-7.87,1.96-12-1.43,1.12-2.85,1.64-4.54,1.49-3.1-.27-5.61-2.35-6.89-5.22-2.4,5.91-3.7,12.23-3.08,18.77.13,1.4,1.31,5.36,3.19,4.76,2.42-.77,1.92,3.14,4.23,1.99ZM83.68,91.39c2.75.47,3.36-3.76,3.65-5.74.25-6.66-.79-11.72-3.24-18.02-1.14,2.57-3.07,4.48-5.69,5.18-2.06.55-3.98.1-5.72-1.18.41,6.57,2.1,13.87,4.74,19.68.27.6.91.9,1.41,1.26.55.4.99.97,1.65.92,1.74-.12,1.19-2.44,3.2-2.1ZM61.32,120.79c.74-6.92,4.18-7.42,2.8-14.43-1.23-6.25,1.23-6.78,1.46-12.69-.89.51-1.64.95-2.45.77-.73-.16-1.5-.69-1.87-1.38-.96-1.79-1.48.27-3.65-1.47-.06,8.26,1.77,4.77-1.53,12.5-1.51,3.53-.84,6.5-.05,10.16l1.57,7.24c.24,1.12,1.25,2.05,2.37,1.52.72-.34,1.26-1.29,1.36-2.22ZM83.83,122.99c1.13.56,2.17-.34,2.39-1.37l1.89-8.68c1.33-6.13.33-7.25-1.79-12.19-1.41-3.29.26-5.2-.2-8.91-2.36,1.46-2.41-.48-3.43,1.27-.44.75-1.27,1.34-2.04,1.42-.84.08-1.49-.34-2.43-.94.26,5.94,2.79,6.48,1.49,13.09-1.29,6.53,2.1,7.26,2.86,14.25.08.73.58,1.73,1.26,2.06ZM57.06,137.28c.69.56,5.18,1.35,5.18-1.34,0-1.64-.24-3.55-.97-5-.59-1.18.06-1.87,0-3.01l-.2-4.36c-1.17.87-2.53.82-3.6-.06l-.66,1.98c-.29.87-.36,1.79-.19,2.76s-.51,2.48-1.65,2.37c-1.04-.1-2.18-.62-3.12.11-.83.65-1.04,2.18-.5,3.05.91,1.45,2.33,2.02,3.99,2.21.63.07,1.13.83,1.71,1.3ZM92.53,133.72c.52-.88.27-2.36-.48-2.97-1.04-.86-2.2-.12-3.27-.13-1.23-.02-1.73-1.58-1.54-2.61.15-.8.09-1.6-.13-2.29l-.74-2.25c-1.13.98-2.4.93-3.58.12l-.23,4.32c-.06,1.14.65,1.82.04,3.02-.65,1.27-1.64,5.24-.35,6.41.69.62,3.78.69,4.67-.13.52-.48.96-1.17,1.64-1.24,1.65-.17,3.12-.81,3.98-2.25Z"/>
  <path class="cls-1" d="M82.22,50.58c-.04,1.39-.21,2.59-.43,3.86-.16.95-.08,1.85-1.31,2.12l-3.96.87c-1.7.37-3.23.98-4.61,2-3.2-2.28-5.2-1.83-8.94-3-.97-.3-.79-1.01-.92-1.75-.23-1.27-.41-2.7-.49-4-1.42-1.93-3.07-3.74-3.94-6.04-1.5-3.97-2.26-4.15-3.4-7.69,2.76-1.48,2.66-.41,4.92-2.67.94-.94,1.94-1.6,3.36-1.86,2.18,3.74-.18,6.06,3.31,8.47,1.32.91,2.71,1.87,3.65,3.14.71.96,1.53,1.58,2.61,1.61,1.22.03,2.03-.68,2.79-1.68.95-1.25,2.34-2.18,3.63-3.1,3.45-2.46,1.12-4.54,3.24-8.34,1.16.31,2.04.9,2.88,1.72,2.6,2.53,1.98,1.09,4.9,2.73-.28,1.23-.7,2.18-1.29,3.21-.84,1.47-1.47,2.93-2.09,4.53-.85,2.19-2.37,4.05-3.92,5.89Z"/>
  <path class="cls-1" d="M73.64,43.79c-.82,1.07-2.27,1.02-3.01,0-2.27-3.09-4.58-3.43-5.52-5.12-.48-.87-.4-2.06-.52-3.04-.69-5.54-3.72-5.29-3.7-6.58.02-.98,2.19-2.06,3.57-2.34,2.03-.41,3.59-1.73,4.19-3.73h6.44c.59,2.04,2.22,3.39,4.37,3.73,1.53.24,3.36,1.45,3.51,2.15.09.39-.3,1.09-.63,1.36-3.31,2.63-2.35,7.06-3.21,8.51-.93,1.58-3.09,1.91-5.5,5.05Z"/>
  <path class="cls-1" d="M83.68,91.39c-2.02-.34-1.46,1.98-3.2,2.1-.66.05-1.1-.53-1.65-.92-.5-.36-1.13-.66-1.41-1.26-2.65-5.81-4.33-13.11-4.74-19.68,1.74,1.29,3.66,1.73,5.72,1.18,2.62-.7,4.55-2.62,5.69-5.18,2.44,6.31,3.49,11.36,3.24,18.02-.28,1.98-.9,6.21-3.65,5.74Z"/>
  <path class="cls-1" d="M64.09,93.31c-2.31,1.16-1.81-2.75-4.23-1.99-1.88.59-3.06-3.36-3.19-4.76-.62-6.54.68-12.86,3.08-18.77,1.28,2.87,3.79,4.95,6.89,5.22,1.69.15,3.11-.37,4.54-1.49-.15,4.13-.99,8.02-1.96,12-.65,2.63-1.51,5.05-2.76,7.45-.49.94-1.37,1.85-2.35,2.34Z"/>
  <path class="cls-1" d="M61.32,120.79c-.1.93-.64,1.88-1.36,2.22-1.12.53-2.13-.41-2.37-1.52l-1.57-7.24c-.79-3.66-1.46-6.63.05-10.16,3.3-7.73,1.46-4.23,1.53-12.5,2.17,1.74,2.69-.32,3.65,1.47.37.69,1.13,1.22,1.87,1.38.81.17,1.57-.26,2.45-.77-.24,5.91-2.7,6.45-1.46,12.69,1.38,7.01-2.06,7.51-2.8,14.43Z"/>
  <path class="cls-1" d="M83.83,122.99c-.68-.34-1.18-1.34-1.26-2.06-.76-6.99-4.15-7.72-2.86-14.25,1.3-6.62-1.23-7.16-1.49-13.09.94.6,1.59,1.02,2.43.94.78-.08,1.61-.66,2.04-1.42,1.02-1.75,1.07.19,3.43-1.27.45,3.72-1.21,5.63.2,8.91,2.12,4.94,3.12,6.06,1.79,12.19l-1.89,8.68c-.22,1.03-1.26,1.93-2.39,1.37Z"/>
  <path class="cls-1" d="M80.8,70.42c-1.67,1.34-3.6,1.91-5.61,1.37-1.64-.44-2.79-1.88-2.78-3.63l.03-7.91c2.28-1.51,8.19-4.01,9.29-.1l1.21,3.43c.91,2.55-.02,5.16-2.14,6.85Z"/>
  <path class="cls-1" d="M68.96,71.68c-2.23.75-4.36.09-6.07-1.33-2.06-1.71-2.93-4.31-2.01-6.91l1.31-3.72c1.35-3.28,6.99-.94,9.14.52.07,2.76.09,5.39.01,8.13-.04,1.51-1,2.74-2.39,3.31Z"/>
  <path class="cls-1" d="M57.06,137.28c-.58-.47-1.08-1.23-1.71-1.3-1.66-.19-3.07-.76-3.99-2.21-.54-.87-.33-2.4.5-3.05.94-.73,2.08-.2,3.12-.11,1.14.11,1.82-1.36,1.65-2.37s-.1-1.9.19-2.76l.66-1.98c1.07.88,2.43.93,3.6.06l.2,4.36c.05,1.15-.59,1.83,0,3.01.73,1.46.97,3.36.97,5,0,2.69-4.49,1.89-5.18,1.34Z"/>
  <path class="cls-1" d="M92.53,133.72c-.86,1.45-2.33,2.08-3.98,2.25-.68.07-1.12.76-1.64,1.24-.89.82-3.98.75-4.67.13-1.29-1.17-.3-5.14.35-6.41.61-1.19-.1-1.87-.04-3.02l.23-4.32c1.18.81,2.45.86,3.58-.12l.74,2.25c.22.68.28,1.49.13,2.29-.19,1.03.3,2.59,1.54,2.61,1.07.02,2.23-.72,3.27.13.75.62,1,2.09.48,2.97Z"/>
  <path class="cls-1" d="M44.9,49.12c.13-.39.43-.89.7-1.16,1.35-1.35,4.24-4.36,2.29-6.12-.88-.79-.58-1.63-.06-2.48,1.18-1.91,3.05-3.01,5.47-2.35.59,1.78,1.4,3.49,2.48,5.32-2.14,4.78-4.84,4.12-6.3,5.71-1.18,1.28-2.8,2.1-4.58,1.08Z"/>
  <path class="cls-1" d="M99.22,48.91c-1.4,1.34-3.41.5-4.61-.82-1.41-1.56-4.64-1.22-6.28-5.81.87-1.78,1.88-3.52,2.34-5.27,2.26-.64,4.08.24,5.31,2.04.44.65,1.13,1.69.42,2.41-2.56,2.6.83,4.99,2.81,7.45Z"/>
  <path class="cls-1" d="M61.75,31.56c-4.03,1.72-2.33,2.48-6.1,3.86-1.65.61-3.28.96-5.05.18.03-2.83.91-5.7,3.23-7.55,2.14-1.72,5.16-2.02,7.76-1.13-.45.41-1.15.9-1.34,1.3-.69,1.4.4,2.45,1.51,3.34Z"/>
  <path class="cls-1" d="M88.28,35.45c-3.69-1.37-2.28-2.23-6.07-3.84l1.11-1.13c.37-.38.65-1.4.47-1.96-.16-.52-.85-1.03-1.49-1.6,2.29-.78,4.96-.64,7.02.63,2.77,1.71,4,4.85,3.94,8.07-1.68.76-3.33.44-4.97-.17Z"/>
  <path class="cls-1" d="M53.43,56.05c-.92,1.05-1.51,1.87-2.15,3.08-3.18-1.22-6.01-3.46-7.68-6.49.77-.57,1.26-1.32,1.43-2.34,1.3.26,2.66.03,4.02-.54,1.12.4,1.81,1.87,2.17,3.01.72,2.24,1.35,1.53,2.2,3.28Z"/>
  <path class="cls-1" d="M92.76,59.15c-.71-1.29-1.23-2.05-2.2-3.08,1.21-2.19,1.3-.63,2.33-3.58.38-1.07,1.02-2.34,2.08-2.77,1.29.54,2.6.96,3.97.5.19,1,.65,1.74,1.46,2.45-1.67,2.99-4.42,5.19-7.64,6.47Z"/>
  <path class="cls-1" d="M91.74,59.42c-3.11,1.28-2.13,5.58-7.59,4.24-.53-1.33-.98-3.14-1.18-4.58-.04-.26.68-.63.88-.82l2.31-2.33c1.24,1.1,2.3,1.67,3.79.95.78.67,1.44,1.59,1.8,2.54Z"/>
  <path class="cls-1" d="M59.79,63.87c-5.99.52-3.94-2.77-7.52-4.44.39-.98,1.07-1.94,1.85-2.54,1.4.68,2.54.23,3.61-.94.89.59,1.59,1.38,2.31,2.29l1.04.57c-.21,1.72-.65,3.4-1.3,5.07Z"/>
  <path class="cls-1" d="M77.43,17.42c.02.75-.49,1.3-1.19,1.63l-.23,2.87-7.86.03c-.14,0-.49.35-.55.26-.07-.11-.24-.44-.25-.59l-.15-2.5c-.65-.39-1.24-.92-1.22-1.64l.05-1.86c.45,1.37,1.02,2.44,1.78,3.65.3.48.4,1.14,1.13,1.22,1.72.2,3.33.26,5.04.1,1.55-.15,2.96-3.5,3.4-4.94l.04,1.78Z"/>
  <path class="cls-1" d="M101.05,51.71c-.89.27-1.26-1.23-1.01-1.97.22-.65-.13-1.37-.55-1.83-.99-1.09-3.64-3.75-3.08-4.94.17-.36.62-.82,1.01-1.16l.63,2.76c.11.49,1.08,1.16,1.4,1.57l2.23,2.91c.23.3.44,1.08.44,1.43,0,.39-.54,1.07-1.06,1.23Z"/>
  <path class="cls-1" d="M44.01,49.88c.25.66-.29,2.07-.95,1.87-1.14-.34-1.43-1.67-.85-2.49,1.2-1.67,2.4-3.16,3.79-4.68l.58-2.76c.42.35.84.75,1,1.11.55,1.29-1.83,3.61-2.9,4.78-.54.59-1,1.29-.67,2.17Z"/>
</svg>