<?xml version="1.0" encoding="UTF-8"?>
<svg id="Layer_1" data-name="Layer 1" xmlns="http://www.w3.org/2000/svg" viewBox="0 0 144 144">
  <path d="M89.06,55.33c.45-.7,1.43-1.63,1.79-2.29.79-1.45,1.05-2.71,2.25-4.04l-1.88-1.03c-1.35-.74-2.43-1.72-3.38-3.07-1.01,2.31-2.4,4.33-4.03,6.27.06,2.64-.83,2.79-.37,5l1.25-1.17c2.09-1.96,3.69,1.39,4.37.34Z"/>
  <path d="M59.1,54.85l1.28,1.05c.39-1.78-.44-2.29-.41-4.74-1.55-1.87-2.87-3.82-3.95-6.06-.73.93-1.55,1.9-2.54,2.45l-2.6,1.45c1.29,1.23,1.3,2.77,2.25,3.98l1.78,2.28c.86,1.1,2.17-2.1,4.2-.42Z"/>
</svg>